<?xml version="1.0" standalone="no"?>
<!DOCTYPE svg PUBLIC "-//W3C//DTD SVG 20010904//EN"
 "http://www.w3.org/TR/2001/REC-SVG-20010904/DTD/svg10.dtd">
<svg version="1.0" xmlns="http://www.w3.org/2000/svg"
 width="700.000000pt" height="700.000000pt" viewBox="0 0 700.000000 700.000000"
 preserveAspectRatio="xMidYMid meet">
<metadata>
Created by potrace 1.14, written by Peter Selinger 2001-2017
</metadata>
<g transform="translate(0.000000,700.000000) scale(0.100000,-0.100000)"
fill="#000000" stroke="none">
<path d="M3497 6834 c-1 -1 -74 -4 -162 -7 -88 -4 -171 -9 -185 -11 -14 -3
-47 -7 -75 -11 -82 -9 -117 -14 -170 -25 -27 -5 -62 -12 -77 -14 -107 -18
-301 -76 -595 -179 -18 -7 -33 -15 -33 -19 0 -5 -7 -8 -15 -8 -15 0 -248 -113
-325 -157 -502 -289 -917 -692 -1215 -1183 -194 -318 -362 -758 -421 -1100 -2
-14 -7 -36 -9 -50 -3 -14 -7 -43 -10 -65 -3 -22 -7 -49 -9 -60 -2 -11 -7 -56
-11 -100 -3 -44 -8 -96 -11 -115 -7 -45 -7 -424 0 -470 3 -19 8 -66 11 -105 5
-60 21 -168 41 -290 2 -16 9 -43 14 -60 5 -16 11 -43 14 -60 18 -112 104 -374
186 -564 167 -390 399 -730 705 -1036 127 -128 352 -318 426 -362 16 -9 29
-21 29 -25 0 -4 5 -8 10 -8 6 0 32 -15 58 -34 119 -83 368 -217 524 -281 35
-15 77 -32 93 -40 77 -34 335 -114 454 -140 11 -3 31 -8 44 -11 59 -14 301
-53 372 -59 44 -4 91 -9 105 -11 33 -6 438 -6 470 0 14 2 62 7 108 11 45 3 93
8 105 10 12 3 63 11 112 19 50 8 120 21 158 30 37 9 80 18 95 21 61 10 300 89
425 139 279 112 460 212 737 407 103 73 263 212 390 339 373 373 648 823 811
1322 36 113 81 283 94 358 3 19 10 53 15 75 4 22 11 63 15 90 3 28 8 57 10 65
2 8 7 51 11 95 3 44 8 96 10 115 4 46 5 404 0 455 -13 145 -19 202 -22 220 -2
10 -6 37 -9 60 -5 38 -8 56 -20 115 -3 14 -8 41 -11 60 -34 204 -176 607 -296
838 -46 88 -148 265 -171 296 -4 6 -31 45 -59 86 -148 215 -395 486 -593 650
-49 41 -95 80 -101 85 -6 6 -22 17 -34 25 -12 8 -49 35 -82 59 -74 53 -226
151 -234 151 -3 0 -18 8 -32 19 -35 24 -221 120 -292 150 -30 13 -78 34 -106
46 -191 86 -594 194 -829 220 -27 3 -66 8 -85 10 -53 7 -348 22 -353 19z"/>
</g>
</svg>
